<svg width="136" height="25" viewBox="0 0 136 25" fill="none" xmlns="http://www.w3.org/2000/svg">
<path d="M21.1202 10.3797C21.0784 10.2468 20.9998 10.1285 20.8937 10.0383C20.7876 9.94803 20.6581 9.8896 20.5202 9.86969L15.1002 9.07969L12.6702 4.16969C12.6011 4.05366 12.503 3.95758 12.3855 3.89086C12.2681 3.82414 12.1353 3.78906 12.0002 3.78906C11.8652 3.78906 11.7324 3.82414 11.6149 3.89086C11.4975 3.95758 11.3994 4.05366 11.3302 4.16969L8.90023 9.07969L3.48023 9.86969C3.34236 9.8896 3.2129 9.94803 3.10676 10.0383C3.00062 10.1285 2.9221 10.2468 2.88023 10.3797C2.83554 10.5121 2.82871 10.6543 2.86051 10.7903C2.89231 10.9264 2.96149 11.0508 3.06023 11.1497L7.00023 14.9697L6.07023 20.3697C6.04666 20.5087 6.06224 20.6516 6.11522 20.7823C6.1682 20.9129 6.2565 21.0263 6.37023 21.1097C6.48415 21.1909 6.6185 21.2386 6.7581 21.2474C6.8977 21.2562 7.03699 21.2259 7.16023 21.1597L12.0002 18.6097L16.8502 21.1597C16.9575 21.2185 17.0779 21.2495 17.2002 21.2497C17.3576 21.2479 17.5108 21.1991 17.6402 21.1097C17.754 21.0263 17.8423 20.9129 17.8952 20.7823C17.9482 20.6516 17.9638 20.5087 17.9402 20.3697L17.0002 14.9697L20.9302 11.1497C21.0307 11.0519 21.1018 10.928 21.1353 10.7919C21.1689 10.6558 21.1637 10.513 21.1202 10.3797Z" fill="#E98305"/>
<path d="M49.1202 10.3797C49.0784 10.2468 48.9998 10.1285 48.8937 10.0383C48.7876 9.94803 48.6581 9.8896 48.5202 9.86969L43.1002 9.07969L40.6702 4.16969C40.6011 4.05366 40.503 3.95758 40.3855 3.89086C40.2681 3.82414 40.1353 3.78906 40.0002 3.78906C39.8652 3.78906 39.7324 3.82414 39.6149 3.89086C39.4975 3.95758 39.3994 4.05366 39.3302 4.16969L36.9002 9.07969L31.4802 9.86969C31.3424 9.8896 31.2129 9.94803 31.1068 10.0383C31.0006 10.1285 30.9221 10.2468 30.8802 10.3797C30.8355 10.5121 30.8287 10.6543 30.8605 10.7903C30.8923 10.9264 30.9615 11.0508 31.0602 11.1497L35.0002 14.9697L34.0702 20.3697C34.0467 20.5087 34.0622 20.6516 34.1152 20.7823C34.1682 20.9129 34.2565 21.0263 34.3702 21.1097C34.4841 21.1909 34.6185 21.2386 34.7581 21.2474C34.8977 21.2562 35.037 21.2259 35.1602 21.1597L40.0002 18.6097L44.8502 21.1597C44.9575 21.2185 45.0779 21.2495 45.2002 21.2497C45.3576 21.2479 45.5108 21.1991 45.6402 21.1097C45.754 21.0263 45.8423 20.9129 45.8952 20.7823C45.9482 20.6516 45.9638 20.5087 45.9402 20.3697L45.0002 14.9697L48.9302 11.1497C49.0307 11.0519 49.1018 10.928 49.1353 10.7919C49.1689 10.6558 49.1637 10.513 49.1202 10.3797Z" fill="#E98305"/>
<path d="M77.1202 10.3797C77.0784 10.2468 76.9998 10.1285 76.8937 10.0383C76.7876 9.94803 76.6581 9.8896 76.5202 9.86969L71.1002 9.07969L68.6702 4.16969C68.6011 4.05366 68.503 3.95758 68.3855 3.89086C68.2681 3.82414 68.1353 3.78906 68.0002 3.78906C67.8652 3.78906 67.7324 3.82414 67.6149 3.89086C67.4975 3.95758 67.3994 4.05366 67.3302 4.16969L64.9002 9.07969L59.4802 9.86969C59.3424 9.8896 59.2129 9.94803 59.1068 10.0383C59.0006 10.1285 58.9221 10.2468 58.8802 10.3797C58.8355 10.5121 58.8287 10.6543 58.8605 10.7903C58.8923 10.9264 58.9615 11.0508 59.0602 11.1497L63.0002 14.9697L62.0702 20.3697C62.0467 20.5087 62.0622 20.6516 62.1152 20.7823C62.1682 20.9129 62.2565 21.0263 62.3702 21.1097C62.4841 21.1909 62.6185 21.2386 62.7581 21.2474C62.8977 21.2562 63.037 21.2259 63.1602 21.1597L68.0002 18.6097L72.8502 21.1597C72.9575 21.2185 73.0779 21.2495 73.2002 21.2497C73.3576 21.2479 73.5108 21.1991 73.6402 21.1097C73.754 21.0263 73.8423 20.9129 73.8952 20.7823C73.9482 20.6516 73.9638 20.5087 73.9402 20.3697L73.0002 14.9697L76.9302 11.1497C77.0307 11.0519 77.1018 10.928 77.1353 10.7919C77.1689 10.6558 77.1637 10.513 77.1202 10.3797Z" fill="#E98305"/>
<path d="M105.12 10.3797C105.078 10.2468 105 10.1285 104.894 10.0383C104.788 9.94803 104.658 9.8896 104.52 9.86969L99.1002 9.07969L96.6702 4.16969C96.6011 4.05366 96.503 3.95758 96.3855 3.89086C96.2681 3.82414 96.1353 3.78906 96.0002 3.78906C95.8652 3.78906 95.7324 3.82414 95.6149 3.89086C95.4975 3.95758 95.3994 4.05366 95.3302 4.16969L92.9002 9.07969L87.4802 9.86969C87.3424 9.8896 87.2129 9.94803 87.1068 10.0383C87.0006 10.1285 86.9221 10.2468 86.8802 10.3797C86.8355 10.5121 86.8287 10.6543 86.8605 10.7903C86.8923 10.9264 86.9615 11.0508 87.0602 11.1497L91.0002 14.9697L90.0702 20.3697C90.0467 20.5087 90.0622 20.6516 90.1152 20.7823C90.1682 20.9129 90.2565 21.0263 90.3702 21.1097C90.4841 21.1909 90.6185 21.2386 90.7581 21.2474C90.8977 21.2562 91.037 21.2259 91.1602 21.1597L96.0002 18.6097L100.85 21.1597C100.958 21.2185 101.078 21.2495 101.2 21.2497C101.358 21.2479 101.511 21.1991 101.64 21.1097C101.754 21.0263 101.842 20.9129 101.895 20.7823C101.948 20.6516 101.964 20.5087 101.94 20.3697L101 14.9697L104.93 11.1497C105.031 11.0519 105.102 10.928 105.135 10.7919C105.169 10.6558 105.164 10.513 105.12 10.3797Z" fill="#E98305"/>
<path d="M115.48 9.86969L120.9 9.07969L115.48 9.86969ZM115.48 9.86969C115.342 9.8896 115.213 9.94803 115.107 10.0383M115.48 9.86969L115.107 10.0383M115.107 10.0383C115.001 10.1285 114.922 10.2468 114.88 10.3797L115.107 10.0383ZM132.643 10.53L132.643 10.53L132.645 10.5347C132.659 10.5791 132.661 10.6267 132.65 10.6721C132.639 10.7174 132.615 10.7588 132.582 10.7914L128.652 14.6112L128.462 14.7952L128.508 15.0554L129.447 20.4533C129.447 20.4535 129.447 20.4538 129.447 20.454C129.455 20.5014 129.45 20.5499 129.432 20.5944C129.415 20.637 129.386 20.6742 129.35 20.7023C129.305 20.732 129.252 20.7484 129.198 20.7497C129.16 20.7491 129.124 20.7394 129.091 20.7213L129.091 20.7213L129.083 20.7171L124.233 18.1671L124 18.0447L123.767 18.1673L118.927 20.7173L118.927 20.7173L118.924 20.7192C118.883 20.7412 118.836 20.7513 118.79 20.7484C118.744 20.7455 118.7 20.7303 118.663 20.7044C118.626 20.6761 118.596 20.6381 118.579 20.5944C118.561 20.5498 118.555 20.5012 118.563 20.4537C118.563 20.4536 118.563 20.4534 118.563 20.4533L119.493 15.0546L119.538 14.7944L119.348 14.6107L115.412 10.7942C115.38 10.7616 115.358 10.7209 115.347 10.6765C115.337 10.6312 115.339 10.5838 115.354 10.5396L115.354 10.5397L115.357 10.53C115.371 10.4869 115.396 10.4485 115.431 10.4192C115.465 10.39 115.507 10.371 115.552 10.3646L115.552 10.3645L120.972 9.57446L121.232 9.53662L121.348 9.30147L123.768 4.41333C123.792 4.37721 123.824 4.34714 123.862 4.32561C123.904 4.30165 123.952 4.28906 124 4.28906C124.049 4.28906 124.096 4.30165 124.139 4.32561C124.176 4.34714 124.209 4.37721 124.233 4.41333L126.652 9.30147L126.768 9.53662L127.028 9.57446L132.448 10.3645L132.449 10.3646C132.493 10.371 132.535 10.39 132.57 10.4192C132.604 10.4485 132.63 10.4869 132.643 10.53Z" stroke="#E98305"/>
</svg>
