<svg width="12" height="12" viewBox="0 0 12 12" fill="none" xmlns="http://www.w3.org/2000/svg">
<path d="M10.7218 2.66699H1.27734M9.79568 4.05588L9.54012 7.88921C9.44179 9.36366 9.3929 10.1009 8.91234 10.5503C8.43179 11.0003 7.69234 11.0003 6.21457 11.0003H5.78457C4.30679 11.0003 3.56734 11.0003 3.08679 10.5503C2.60623 10.1009 2.55679 9.36366 2.45901 7.88921L2.20345 4.05588M4.61068 5.44477L4.88846 8.22255M7.38846 5.44477L7.11068 8.22255" stroke="#EFEFEF" stroke-linecap="round"/>
<path d="M2.94434 2.66667H3.00545C3.22903 2.66095 3.44568 2.5879 3.62707 2.45706C3.80846 2.32622 3.94614 2.14369 4.02211 1.93333L4.041 1.87611L4.09489 1.71444C4.141 1.57611 4.16434 1.50722 4.19489 1.44833C4.25501 1.33299 4.34129 1.23333 4.44682 1.15731C4.55236 1.08129 4.67423 1.03103 4.80267 1.01056C4.86767 1 4.94045 1 5.086 1H6.91378C7.05934 1 7.13211 1 7.19711 1.01056C7.32556 1.03103 7.44742 1.08129 7.55296 1.15731C7.6585 1.23333 7.74478 1.33299 7.80489 1.44833C7.83545 1.50722 7.85878 1.57611 7.90489 1.71444L7.95878 1.87611C8.02918 2.11015 8.17479 2.31445 8.37305 2.45737C8.5713 2.60029 8.81115 2.67385 9.05545 2.66667" stroke="#EFEFEF"/>
</svg>
