<svg width="141" height="40" viewBox="0 0 141 40" fill="none" xmlns="http://www.w3.org/2000/svg">
<path d="M0 20C0 31.0457 8.95431 40 20 40C31.0457 40 40 31.0457 40 20C40 8.95431 31.0457 0 20 0C8.95431 0 0 8.95431 0 20Z" fill="#005C4E"/>
<path d="M11.3887 11.3887V29.2558V11.3887Z" fill="#ECF8F7"/>
<path d="M11.3887 11.3887V29.2558" stroke="#ECF8F7" stroke-width="2.89267"/>
<path d="M16.7344 11.3887V20.2884V11.3887Z" fill="#ECF8F7"/>
<path d="M16.7344 11.3887V20.2884" stroke="#ECF8F7" stroke-width="2.88718"/>
<path d="M20.8042 11.3896V14.4126H25.9033L29.6022 22.0705H32.9327L27.6431 11.3896H20.8042Z" fill="#ECF8F7"/>
<path d="M22.3223 17.6885V29.6108V17.6885Z" fill="#ECF8F7"/>
<path d="M22.3223 17.6885V29.6108" stroke="#ECF8F7" stroke-width="3.34168"/>
<path d="M51.398 27V15.1214H53.4708L57.9193 21.1643H56.9307L61.2836 15.1214H63.3563V27H61.1719V17.5928L62.017 17.8001L57.5047 23.8111H57.2496L52.8489 17.8001L53.5664 17.5928V27H51.398ZM68.0851 27.1913C67.4792 27.1913 66.9531 27.0904 66.5066 26.8884C66.0602 26.6864 65.7147 26.3994 65.4702 26.0274C65.2257 25.6447 65.1035 25.2036 65.1035 24.704C65.1035 24.2257 65.2098 23.8005 65.4224 23.4284C65.635 23.0458 65.9645 22.7269 66.4109 22.4718C66.8574 22.2167 67.4208 22.036 68.1011 21.9297L70.9392 21.4673V23.0617L68.4997 23.4763C68.0851 23.5507 67.7768 23.6836 67.5749 23.8749C67.3729 24.0662 67.2719 24.316 67.2719 24.6243C67.2719 24.9219 67.3836 25.1611 67.6068 25.3418C67.8406 25.5119 68.1276 25.5969 68.4678 25.5969C68.9036 25.5969 69.2863 25.5065 69.6158 25.3258C69.9559 25.1345 70.2163 24.8741 70.3971 24.5446C70.5884 24.215 70.6841 23.8536 70.6841 23.4603V21.2281C70.6841 20.8561 70.5352 20.5478 70.2376 20.3033C69.9506 20.0482 69.5679 19.9207 69.0896 19.9207C68.6432 19.9207 68.2446 20.0429 67.8938 20.2874C67.5536 20.5212 67.3038 20.8348 67.1444 21.2281L65.4383 20.399C65.6084 19.9419 65.8741 19.5486 66.2356 19.2191C66.6076 18.879 67.0434 18.6132 67.543 18.4219C68.0426 18.2306 68.5847 18.1349 69.1693 18.1349C69.8815 18.1349 70.5087 18.2678 71.0508 18.5335C71.5929 18.7886 72.0128 19.15 72.3104 19.6177C72.6186 20.0748 72.7728 20.6116 72.7728 21.2281V27H70.7957V25.5172L71.2421 25.4853C71.0189 25.8573 70.7531 26.1709 70.4449 26.426C70.1366 26.6705 69.7858 26.8618 69.3926 27C68.9993 27.1276 68.5634 27.1913 68.0851 27.1913ZM74.7033 27V18.3262H76.6645V20.0323L76.505 19.7293C76.707 19.2085 77.0365 18.8152 77.4936 18.5494C77.9613 18.2731 78.5034 18.1349 79.1199 18.1349C79.7577 18.1349 80.3211 18.2731 80.81 18.5494C81.3096 18.8258 81.6976 19.2138 81.974 19.7134C82.2503 20.2024 82.3885 20.771 82.3885 21.4194V27H80.2998V21.9137C80.2998 21.5311 80.2254 21.2015 80.0766 20.9252C79.9278 20.6488 79.7205 20.4362 79.4547 20.2874C79.1996 20.1279 78.8967 20.0482 78.5459 20.0482C78.2058 20.0482 77.9028 20.1279 77.6371 20.2874C77.3713 20.4362 77.1641 20.6488 77.0152 20.9252C76.8664 21.2015 76.792 21.5311 76.792 21.9137V27H74.7033ZM88.3641 30.5078C87.7157 30.5078 87.1151 30.4015 86.5624 30.1889C86.0096 29.9763 85.5313 29.6787 85.1274 29.296C84.7341 28.924 84.4471 28.4828 84.2664 27.9726L86.2116 27.2392C86.3391 27.6431 86.5889 27.9673 86.961 28.2118C87.3436 28.4669 87.8113 28.5944 88.3641 28.5944C88.7893 28.5944 89.1613 28.5147 89.4802 28.3553C89.8097 28.1958 90.0648 27.962 90.2455 27.6537C90.4262 27.3561 90.5166 26.9947 90.5166 26.5695V24.5924L90.9152 25.0707C90.6176 25.5916 90.2189 25.9849 89.7194 26.2506C89.2198 26.5164 88.6511 26.6492 88.0133 26.6492C87.2054 26.6492 86.4826 26.4632 85.8449 26.0912C85.2071 25.7191 84.7075 25.2089 84.3461 24.5605C83.9847 23.9121 83.804 23.184 83.804 22.3761C83.804 21.5576 83.9847 20.8295 84.3461 20.1917C84.7075 19.5539 85.2018 19.0544 85.8289 18.6929C86.4561 18.3209 87.1682 18.1349 87.9655 18.1349C88.6139 18.1349 89.1826 18.2731 89.6715 18.5494C90.1711 18.8152 90.5857 19.2032 90.9152 19.7134L90.6282 20.2396V18.3262H92.6053V26.5695C92.6053 27.3242 92.4193 27.9992 92.0472 28.5944C91.6858 29.1897 91.1862 29.6574 90.5485 29.9976C89.9213 30.3377 89.1932 30.5078 88.3641 30.5078ZM88.2684 24.7199C88.7149 24.7199 89.1028 24.6243 89.4324 24.4329C89.7725 24.231 90.0382 23.9546 90.2296 23.6038C90.4209 23.2531 90.5166 22.8491 90.5166 22.3921C90.5166 21.9456 90.4156 21.547 90.2136 21.1962C90.0223 20.8348 89.7566 20.5531 89.4164 20.3512C89.0869 20.1492 88.7042 20.0482 88.2684 20.0482C87.8326 20.0482 87.4393 20.1492 87.0885 20.3512C86.7377 20.5531 86.4614 20.8348 86.2594 21.1962C86.0681 21.547 85.9724 21.9456 85.9724 22.3921C85.9724 22.8385 86.0681 23.2371 86.2594 23.5879C86.4614 23.9387 86.7324 24.215 87.0726 24.417C87.4234 24.619 87.822 24.7199 88.2684 24.7199ZM98.9726 27.1913C98.2179 27.1913 97.5164 27.0531 96.8679 26.7768C96.2302 26.5004 95.6774 26.1177 95.2097 25.6288C94.7526 25.1292 94.4178 24.5499 94.2052 23.8908L96.0069 23.1096C96.2939 23.7899 96.7085 24.3266 97.2506 24.7199C97.7927 25.1026 98.4039 25.2939 99.0842 25.2939C99.4669 25.2939 99.7964 25.2355 100.073 25.1186C100.36 24.991 100.578 24.8209 100.727 24.6083C100.886 24.3957 100.966 24.1406 100.966 23.843C100.966 23.4922 100.859 23.2052 100.647 22.982C100.445 22.7481 100.137 22.5674 99.722 22.4399L97.4419 21.7064C96.5172 21.4194 95.8209 20.9889 95.3532 20.4149C94.8855 19.8409 94.6517 19.166 94.6517 18.39C94.6517 17.7097 94.8164 17.1091 95.1459 16.5883C95.4861 16.0674 95.9538 15.6635 96.5491 15.3765C97.1549 15.0789 97.8459 14.9301 98.6218 14.9301C99.334 14.9301 99.9877 15.0576 100.583 15.3127C101.178 15.5572 101.688 15.9027 102.114 16.3491C102.549 16.7849 102.874 17.3005 103.086 17.8957L101.301 18.6929C101.067 18.0977 100.716 17.6406 100.248 17.3217C99.7805 16.9922 99.2384 16.8274 98.6218 16.8274C98.2604 16.8274 97.9415 16.8912 97.6652 17.0188C97.3888 17.1357 97.1709 17.3058 97.0114 17.529C96.8626 17.7416 96.7882 17.9967 96.7882 18.2943C96.7882 18.6239 96.8945 18.9162 97.1071 19.1713C97.3197 19.4158 97.6439 19.6071 98.0797 19.7453L100.264 20.4309C101.21 20.7391 101.917 21.1643 102.385 21.7064C102.863 22.2486 103.102 22.9182 103.102 23.7154C103.102 24.3957 102.927 24.9963 102.576 25.5172C102.225 26.038 101.742 26.4473 101.125 26.7449C100.509 27.0425 99.7911 27.1913 98.9726 27.1913ZM108.834 27.0957C107.856 27.0957 107.096 26.8299 106.554 26.2984C106.022 25.7563 105.756 24.9963 105.756 24.0184V20.1917H104.258V18.3262H104.417C104.842 18.3262 105.172 18.2146 105.406 17.9914C105.639 17.7682 105.756 17.444 105.756 17.0188V16.3491H107.845V18.3262H109.838V20.1917H107.845V23.9068C107.845 24.1938 107.893 24.4383 107.989 24.6402C108.095 24.8422 108.254 24.9963 108.467 25.1026C108.69 25.2089 108.972 25.2621 109.312 25.2621C109.386 25.2621 109.471 25.2567 109.567 25.2461C109.673 25.2355 109.774 25.2249 109.87 25.2142V27C109.721 27.0213 109.551 27.0425 109.36 27.0638C109.168 27.085 108.993 27.0957 108.834 27.0957ZM115.629 27.1913C114.779 27.1913 114.003 26.9947 113.301 26.6014C112.61 26.2081 112.058 25.6713 111.643 24.991C111.239 24.3107 111.037 23.5347 111.037 22.6631C111.037 21.7915 111.239 21.0155 111.643 20.3352C112.058 19.6549 112.61 19.1181 113.301 18.7248C113.992 18.3315 114.768 18.1349 115.629 18.1349C116.48 18.1349 117.25 18.3315 117.941 18.7248C118.632 19.1181 119.179 19.6549 119.583 20.3352C119.998 21.0049 120.205 21.7809 120.205 22.6631C120.205 23.5347 119.998 24.3107 119.583 24.991C119.169 25.6713 118.616 26.2081 117.925 26.6014C117.234 26.9947 116.469 27.1913 115.629 27.1913ZM115.629 25.278C116.097 25.278 116.506 25.1664 116.857 24.9432C117.218 24.7199 117.5 24.4117 117.702 24.0184C117.915 23.6145 118.021 23.1627 118.021 22.6631C118.021 22.1529 117.915 21.7064 117.702 21.3238C117.5 20.9305 117.218 20.6222 116.857 20.399C116.506 20.1651 116.097 20.0482 115.629 20.0482C115.151 20.0482 114.731 20.1651 114.37 20.399C114.008 20.6222 113.721 20.9305 113.509 21.3238C113.307 21.7064 113.206 22.1529 113.206 22.6631C113.206 23.1627 113.307 23.6145 113.509 24.0184C113.721 24.4117 114.008 24.7199 114.37 24.9432C114.731 25.1664 115.151 25.278 115.629 25.278ZM121.789 27V18.3262H123.75V20.2555L123.591 19.9685C123.793 19.3201 124.106 18.8683 124.532 18.6132C124.967 18.3581 125.488 18.2306 126.094 18.2306H126.604V20.0801H125.855C125.26 20.0801 124.781 20.2661 124.42 20.6382C124.059 20.9996 123.878 21.5098 123.878 22.1688V27H121.789ZM131.866 27.1913C130.974 27.1913 130.192 26.9894 129.523 26.5854C128.853 26.1815 128.332 25.6341 127.96 24.9432C127.588 24.2522 127.402 23.4869 127.402 22.6472C127.402 21.7755 127.588 21.0049 127.96 20.3352C128.343 19.6549 128.858 19.1181 129.507 18.7248C130.166 18.3315 130.899 18.1349 131.707 18.1349C132.387 18.1349 132.983 18.2465 133.493 18.4697C134.014 18.6929 134.455 19.0012 134.816 19.3945C135.178 19.7878 135.454 20.2396 135.645 20.7498C135.837 21.2494 135.932 21.7915 135.932 22.3761C135.932 22.5249 135.922 22.6791 135.9 22.8385C135.89 22.9979 135.863 23.1361 135.821 23.2531H129.124V21.6586H134.641L133.652 22.408C133.748 21.919 133.721 21.4832 133.573 21.1006C133.434 20.7179 133.201 20.4149 132.871 20.1917C132.552 19.9685 132.164 19.8569 131.707 19.8569C131.271 19.8569 130.883 19.9685 130.543 20.1917C130.203 20.4043 129.943 20.7232 129.762 21.1484C129.592 21.5629 129.528 22.0679 129.57 22.6631C129.528 23.1946 129.597 23.6676 129.778 24.0822C129.969 24.4861 130.245 24.7997 130.607 25.0229C130.979 25.2461 131.404 25.3577 131.882 25.3577C132.361 25.3577 132.765 25.2567 133.094 25.0548C133.434 24.8528 133.7 24.5818 133.891 24.2416L135.582 25.0707C135.411 25.4853 135.146 25.852 134.784 26.1709C134.423 26.4898 133.992 26.7396 133.493 26.9203C133.004 27.101 132.462 27.1913 131.866 27.1913Z" fill="#005C4E"/>
</svg>
