<svg width="40" height="40" viewBox="0 0 40 40" fill="none" xmlns="http://www.w3.org/2000/svg">
<g clip-path="url(#clip0_4126_4979)">
<path d="M16.9062 28.3477C17.5966 28.3477 18.1562 27.788 18.1562 27.0977C18.1562 26.4073 17.5966 25.8477 16.9062 25.8477C16.2159 25.8477 15.6562 26.4073 15.6562 27.0977C15.6562 27.788 16.2159 28.3477 16.9062 28.3477Z" fill="#005C4E"/>
<path d="M24.5 28.3477C25.1904 28.3477 25.75 27.788 25.75 27.0977C25.75 26.4073 25.1904 25.8477 24.5 25.8477C23.8096 25.8477 23.25 26.4073 23.25 27.0977C23.25 27.788 23.8096 28.3477 24.5 28.3477Z" fill="#005C4E"/>
<path d="M27.8774 13.5524C27.8257 13.4887 27.7605 13.4372 27.6866 13.4016C27.6126 13.3661 27.5317 13.3474 27.4496 13.3468H15.8829L16.2441 14.4579H26.7218L25.2385 21.1246H16.9052L14.3663 13.0857C14.3388 13.0004 14.2911 12.923 14.2273 12.8602C14.1634 12.7973 14.0853 12.7508 13.9996 12.7246L11.7218 12.0246C11.6518 12.0031 11.5782 11.9956 11.5053 12.0025C11.4323 12.0094 11.3615 12.0306 11.2967 12.0649C11.166 12.1342 11.0681 12.2526 11.0246 12.3941C10.9811 12.5355 10.9957 12.6884 11.0649 12.8192C11.1342 12.9499 11.2526 13.0478 11.3941 13.0913L13.3885 13.7024L15.9385 21.7579L15.0274 22.5024L14.9552 22.5746C14.7298 22.8343 14.6021 23.1645 14.5939 23.5083C14.5858 23.852 14.6979 24.1879 14.9107 24.4579C15.0621 24.6421 15.2546 24.7882 15.4726 24.8847C15.6906 24.9812 15.9282 25.0253 16.1663 25.0135H25.4385C25.5858 25.0135 25.7272 24.955 25.8313 24.8508C25.9355 24.7466 25.9941 24.6053 25.9941 24.4579C25.9941 24.3106 25.9355 24.1693 25.8313 24.0651C25.7272 23.9609 25.5858 23.9024 25.4385 23.9024H16.0774C16.0134 23.9002 15.9511 23.8816 15.8964 23.8483C15.8418 23.8149 15.7966 23.7681 15.7653 23.7123C15.7341 23.6564 15.7177 23.5934 15.7179 23.5294C15.718 23.4654 15.7347 23.4025 15.7663 23.3468L17.1052 22.2357H25.6829C25.8114 22.2389 25.9369 22.1974 26.0382 22.1184C26.1395 22.0394 26.2103 21.9277 26.2385 21.8024L27.9996 14.0246C28.0165 13.9418 28.0143 13.8562 27.9931 13.7744C27.9719 13.6925 27.9323 13.6166 27.8774 13.5524Z" fill="#005C4E"/>
</g>
<defs>
<clipPath id="clip0_4126_4979">
<rect width="20" height="20" fill="white" transform="translate(10 10)"/>
</clipPath>
</defs>
</svg>
