<svg width="40" height="40" viewBox="0 0 40 40" fill="none" xmlns="http://www.w3.org/2000/svg">
<g clip-path="url(#clip0_4126_4974)">
<path d="M19.0718 12.8049C20.2752 12.8038 21.4519 13.1597 22.4531 13.8274C23.4542 14.4952 24.2348 15.4449 24.6961 16.5564C25.1573 17.6679 25.2786 18.8912 25.0445 20.0716C24.8104 21.252 24.2315 22.3365 23.3809 23.1878C22.5304 24.0392 21.4464 24.6191 20.2662 24.8543C19.086 25.0894 17.8626 24.9693 16.7507 24.509C15.6388 24.0488 14.6884 23.2691 14.0197 22.2685C13.351 21.268 12.9941 20.0916 12.9941 18.8882C13.0014 17.278 13.6439 15.7358 14.7819 14.5967C15.92 13.4576 17.4616 12.8137 19.0718 12.8049ZM19.0718 11.666C17.6434 11.666 16.2471 12.0896 15.0594 12.8832C13.8717 13.6768 12.946 14.8047 12.3994 16.1244C11.8527 17.4441 11.7097 18.8962 11.9884 20.2972C12.2671 21.6982 12.9549 22.9851 13.965 23.9951C14.975 25.0052 16.2619 25.693 17.6628 25.9717C19.0638 26.2504 20.516 26.1073 21.8357 25.5607C23.1553 25.0141 24.2833 24.0884 25.0769 22.9007C25.8705 21.713 26.2941 20.3167 26.2941 18.8882C26.2941 16.9728 25.5331 15.1358 24.1787 13.7814C22.8243 12.4269 20.9873 11.666 19.0718 11.666Z" fill="#005C4E"/>
<path d="M29.4439 28.4933L25.3494 24.3711L24.5605 25.1544L28.655 29.2766C28.7064 29.3284 28.7676 29.3696 28.8349 29.3978C28.9022 29.426 28.9745 29.4406 29.0475 29.4408C29.1205 29.4411 29.1928 29.427 29.2603 29.3993C29.3279 29.3716 29.3893 29.3309 29.4411 29.2794C29.4929 29.228 29.5341 29.1669 29.5622 29.0995C29.5904 29.0322 29.605 28.9599 29.6053 28.8869C29.6056 28.8139 29.5914 28.7416 29.5637 28.6741C29.536 28.6065 29.4953 28.5451 29.4439 28.4933Z" fill="#005C4E"/>
</g>
<defs>
<clipPath id="clip0_4126_4974">
<rect width="20" height="20" fill="white" transform="translate(10 10)"/>
</clipPath>
</defs>
</svg>
