<svg width="141" height="40" viewBox="0 0 141 40" fill="none" xmlns="http://www.w3.org/2000/svg">
<path d="M0 20C0 31.0457 8.95431 40 20 40C31.0457 40 40 31.0457 40 20C40 8.95431 31.0457 0 20 0C8.95431 0 0 8.95431 0 20Z" fill="white"/>
<path d="M11.3887 11.3887V29.2558V11.3887Z" fill="#005C4E"/>
<path d="M11.3887 11.3887V29.2558" stroke="#005C4E" stroke-width="2.89267"/>
<path d="M16.7344 11.3887V20.2884V11.3887Z" fill="#005C4E"/>
<path d="M16.7344 11.3887V20.2884" stroke="#005C4E" stroke-width="2.88718"/>
<path d="M20.8042 11.3887V14.4116H25.9033L29.6022 22.0695H32.9327L27.6431 11.3887H20.8042Z" fill="#005C4E"/>
<path d="M22.3223 17.6895V29.6117V17.6895Z" fill="#005C4E"/>
<path d="M22.3223 17.6895V29.6117" stroke="#005C4E" stroke-width="3.34168"/>
<path d="M51.398 27V15.1214H53.4708L57.9193 21.1643H56.9307L61.2836 15.1214H63.3563V27H61.1719V17.5928L62.017 17.8001L57.5047 23.8111H57.2496L52.8489 17.8001L53.5664 17.5928V27H51.398ZM68.0851 27.1913C67.4792 27.1913 66.9531 27.0904 66.5066 26.8884C66.0602 26.6864 65.7147 26.3994 65.4702 26.0274C65.2257 25.6447 65.1035 25.2036 65.1035 24.704C65.1035 24.2257 65.2098 23.8005 65.4224 23.4284C65.635 23.0458 65.9645 22.7269 66.4109 22.4718C66.8574 22.2167 67.4208 22.036 68.1011 21.9297L70.9392 21.4673V23.0617L68.4997 23.4763C68.0851 23.5507 67.7768 23.6836 67.5749 23.8749C67.3729 24.0662 67.2719 24.316 67.2719 24.6243C67.2719 24.9219 67.3836 25.1611 67.6068 25.3418C67.8406 25.5119 68.1276 25.5969 68.4678 25.5969C68.9036 25.5969 69.2863 25.5065 69.6158 25.3258C69.9559 25.1345 70.2163 24.8741 70.3971 24.5446C70.5884 24.215 70.6841 23.8536 70.6841 23.4603V21.2281C70.6841 20.8561 70.5352 20.5478 70.2376 20.3033C69.9506 20.0482 69.5679 19.9207 69.0896 19.9207C68.6432 19.9207 68.2446 20.0429 67.8938 20.2874C67.5536 20.5212 67.3038 20.8348 67.1444 21.2281L65.4383 20.399C65.6084 19.9419 65.8741 19.5486 66.2356 19.2191C66.6076 18.879 67.0434 18.6132 67.543 18.4219C68.0426 18.2306 68.5847 18.1349 69.1693 18.1349C69.8815 18.1349 70.5087 18.2678 71.0508 18.5335C71.5929 18.7886 72.0128 19.15 72.3104 19.6177C72.6186 20.0748 72.7728 20.6116 72.7728 21.2281V27H70.7957V25.5172L71.2421 25.4853C71.0189 25.8573 70.7531 26.1709 70.4449 26.426C70.1366 26.6705 69.7858 26.8618 69.3926 27C68.9993 27.1276 68.5634 27.1913 68.0851 27.1913ZM74.7033 27V18.3262H76.6645V20.0323L76.505 19.7293C76.707 19.2085 77.0365 18.8152 77.4936 18.5494C77.9613 18.2731 78.5034 18.1349 79.1199 18.1349C79.7577 18.1349 80.3211 18.2731 80.81 18.5494C81.3096 18.8258 81.6976 19.2138 81.974 19.7134C82.2503 20.2024 82.3885 20.771 82.3885 21.4194V27H80.2998V21.9137C80.2998 21.5311 80.2254 21.2015 80.0766 20.9252C79.9278 20.6488 79.7205 20.4362 79.4547 20.2874C79.1996 20.1279 78.8967 20.0482 78.5459 20.0482C78.2058 20.0482 77.9028 20.1279 77.6371 20.2874C77.3713 20.4362 77.1641 20.6488 77.0152 20.9252C76.8664 21.2015 76.792 21.5311 76.792 21.9137V27H74.7033ZM88.3641 30.5078C87.7157 30.5078 87.1151 30.4015 86.5624 30.1889C86.0096 29.9763 85.5313 29.6787 85.1274 29.296C84.7341 28.924 84.4471 28.4828 84.2664 27.9726L86.2116 27.2392C86.3391 27.6431 86.5889 27.9673 86.961 28.2118C87.3436 28.4669 87.8113 28.5944 88.3641 28.5944C88.7893 28.5944 89.1613 28.5147 89.4802 28.3553C89.8097 28.1958 90.0648 27.962 90.2455 27.6537C90.4262 27.3561 90.5166 26.9947 90.5166 26.5695V24.5924L90.9152 25.0707C90.6176 25.5916 90.2189 25.9849 89.7194 26.2506C89.2198 26.5164 88.6511 26.6492 88.0133 26.6492C87.2054 26.6492 86.4826 26.4632 85.8449 26.0912C85.2071 25.7191 84.7075 25.2089 84.3461 24.5605C83.9847 23.9121 83.804 23.184 83.804 22.3761C83.804 21.5576 83.9847 20.8295 84.3461 20.1917C84.7075 19.5539 85.2018 19.0544 85.8289 18.6929C86.4561 18.3209 87.1682 18.1349 87.9655 18.1349C88.6139 18.1349 89.1826 18.2731 89.6715 18.5494C90.1711 18.8152 90.5857 19.2032 90.9152 19.7134L90.6282 20.2396V18.3262H92.6053V26.5695C92.6053 27.3242 92.4193 27.9992 92.0472 28.5944C91.6858 29.1897 91.1862 29.6574 90.5485 29.9976C89.9213 30.3377 89.1932 30.5078 88.3641 30.5078ZM88.2684 24.7199C88.7149 24.7199 89.1028 24.6243 89.4324 24.4329C89.7725 24.231 90.0382 23.9546 90.2296 23.6038C90.4209 23.2531 90.5166 22.8491 90.5166 22.3921C90.5166 21.9456 90.4156 21.547 90.2136 21.1962C90.0223 20.8348 89.7566 20.5531 89.4164 20.3512C89.0869 20.1492 88.7042 20.0482 88.2684 20.0482C87.8326 20.0482 87.4393 20.1492 87.0885 20.3512C86.7377 20.5531 86.4614 20.8348 86.2594 21.1962C86.0681 21.547 85.9724 21.9456 85.9724 22.3921C85.9724 22.8385 86.0681 23.2371 86.2594 23.5879C86.4614 23.9387 86.7324 24.215 87.0726 24.417C87.4234 24.619 87.822 24.7199 88.2684 24.7199ZM101.806 27.1913C101.052 27.1913 100.35 27.0531 99.7018 26.7768C99.064 26.5004 98.5113 26.1177 98.0436 25.6288C97.5865 25.1292 97.2517 24.5499 97.0391 23.8908L98.8408 23.1096C99.1278 23.7899 99.5424 24.3266 100.084 24.7199C100.627 25.1026 101.238 25.2939 101.918 25.2939C102.301 25.2939 102.63 25.2355 102.907 25.1186C103.194 24.991 103.412 24.8209 103.56 24.6083C103.72 24.3957 103.8 24.1406 103.8 23.843C103.8 23.4922 103.693 23.2052 103.481 22.982C103.279 22.7481 102.97 22.5674 102.556 22.4399L100.276 21.7064C99.351 21.4194 98.6548 20.9889 98.1871 20.4149C97.7194 19.8409 97.4855 19.166 97.4855 18.39C97.4855 17.7097 97.6503 17.1091 97.9798 16.5883C98.32 16.0674 98.7877 15.6635 99.3829 15.3765C99.9888 15.0789 100.68 14.9301 101.456 14.9301C102.168 14.9301 102.822 15.0576 103.417 15.3127C104.012 15.5572 104.522 15.9027 104.948 16.3491C105.383 16.7849 105.708 17.3005 105.92 17.8957L104.134 18.6929C103.901 18.0977 103.55 17.6406 103.082 17.3217C102.614 16.9922 102.072 16.8274 101.456 16.8274C101.094 16.8274 100.775 16.8912 100.499 17.0188C100.223 17.1357 100.005 17.3058 99.8453 17.529C99.6965 17.7416 99.6221 17.9967 99.6221 18.2943C99.6221 18.6239 99.7284 18.9162 99.941 19.1713C100.154 19.4158 100.478 19.6071 100.914 19.7453L103.098 20.4309C104.044 20.7391 104.751 21.1643 105.219 21.7064C105.697 22.2486 105.936 22.9182 105.936 23.7154C105.936 24.3957 105.761 24.9963 105.41 25.5172C105.059 26.038 104.576 26.4473 103.959 26.7449C103.342 27.0425 102.625 27.1913 101.806 27.1913ZM111.668 27.0957C110.69 27.0957 109.93 26.8299 109.387 26.2984C108.856 25.7563 108.59 24.9963 108.59 24.0184V20.1917H107.091V18.3262H107.251C107.676 18.3262 108.006 18.2146 108.239 17.9914C108.473 17.7682 108.59 17.444 108.59 17.0188V16.3491H110.679V18.3262H112.672V20.1917H110.679V23.9068C110.679 24.1938 110.727 24.4383 110.822 24.6402C110.929 24.8422 111.088 24.9963 111.301 25.1026C111.524 25.2089 111.806 25.2621 112.146 25.2621C112.22 25.2621 112.305 25.2567 112.401 25.2461C112.507 25.2355 112.608 25.2249 112.704 25.2142V27C112.555 27.0213 112.385 27.0425 112.194 27.0638C112.002 27.085 111.827 27.0957 111.668 27.0957ZM118.463 27.1913C117.613 27.1913 116.837 26.9947 116.135 26.6014C115.444 26.2081 114.892 25.6713 114.477 24.991C114.073 24.3107 113.871 23.5347 113.871 22.6631C113.871 21.7915 114.073 21.0155 114.477 20.3352C114.892 19.6549 115.444 19.1181 116.135 18.7248C116.826 18.3315 117.602 18.1349 118.463 18.1349C119.313 18.1349 120.084 18.3315 120.775 18.7248C121.466 19.1181 122.013 19.6549 122.417 20.3352C122.832 21.0049 123.039 21.7809 123.039 22.6631C123.039 23.5347 122.832 24.3107 122.417 24.991C122.003 25.6713 121.45 26.2081 120.759 26.6014C120.068 26.9947 119.303 27.1913 118.463 27.1913ZM118.463 25.278C118.931 25.278 119.34 25.1664 119.691 24.9432C120.052 24.7199 120.334 24.4117 120.536 24.0184C120.748 23.6145 120.855 23.1627 120.855 22.6631C120.855 22.1529 120.748 21.7064 120.536 21.3238C120.334 20.9305 120.052 20.6222 119.691 20.399C119.34 20.1651 118.931 20.0482 118.463 20.0482C117.985 20.0482 117.565 20.1651 117.203 20.399C116.842 20.6222 116.555 20.9305 116.342 21.3238C116.141 21.7064 116.04 22.1529 116.04 22.6631C116.04 23.1627 116.141 23.6145 116.342 24.0184C116.555 24.4117 116.842 24.7199 117.203 24.9432C117.565 25.1664 117.985 25.278 118.463 25.278ZM124.623 27V18.3262H126.584V20.2555L126.425 19.9685C126.627 19.3201 126.94 18.8683 127.366 18.6132C127.801 18.3581 128.322 18.2306 128.928 18.2306H129.438V20.0801H128.689C128.094 20.0801 127.615 20.2661 127.254 20.6382C126.893 20.9996 126.712 21.5098 126.712 22.1688V27H124.623ZM134.7 27.1913C133.807 27.1913 133.026 26.9894 132.357 26.5854C131.687 26.1815 131.166 25.6341 130.794 24.9432C130.422 24.2522 130.236 23.4869 130.236 22.6472C130.236 21.7755 130.422 21.0049 130.794 20.3352C131.177 19.6549 131.692 19.1181 132.341 18.7248C133 18.3315 133.733 18.1349 134.541 18.1349C135.221 18.1349 135.816 18.2465 136.327 18.4697C136.848 18.6929 137.289 19.0012 137.65 19.3945C138.012 19.7878 138.288 20.2396 138.479 20.7498C138.671 21.2494 138.766 21.7915 138.766 22.3761C138.766 22.5249 138.756 22.6791 138.734 22.8385C138.724 22.9979 138.697 23.1361 138.655 23.2531H131.958V21.6586H137.475L136.486 22.408C136.582 21.919 136.555 21.4832 136.406 21.1006C136.268 20.7179 136.034 20.4149 135.705 20.1917C135.386 19.9685 134.998 19.8569 134.541 19.8569C134.105 19.8569 133.717 19.9685 133.377 20.1917C133.037 20.4043 132.776 20.7232 132.596 21.1484C132.426 21.5629 132.362 22.0679 132.404 22.6631C132.362 23.1946 132.431 23.6676 132.612 24.0822C132.803 24.4861 133.079 24.7997 133.441 25.0229C133.813 25.2461 134.238 25.3577 134.716 25.3577C135.195 25.3577 135.599 25.2567 135.928 25.0548C136.268 24.8528 136.534 24.5818 136.725 24.2416L138.415 25.0707C138.245 25.4853 137.98 25.852 137.618 26.1709C137.257 26.4898 136.826 26.7396 136.327 26.9203C135.838 27.101 135.296 27.1913 134.7 27.1913Z" fill="white"/>
</svg>
