<svg width="22" height="24" viewBox="0 0 22 24" fill="none" xmlns="http://www.w3.org/2000/svg">
<path d="M14.9412 17.963C15.1712 16.084 13.9612 14.886 10.7662 13.866C9.21819 13.338 8.48919 12.646 8.50619 11.695C8.57119 10.639 9.55419 9.87 10.8582 9.845C11.8852 9.8555 12.887 10.1648 13.7412 10.735C13.8572 10.807 13.9382 10.795 14.0042 10.695C14.0942 10.551 14.3192 10.202 14.3942 10.075C14.4452 9.995 14.4552 9.889 14.3262 9.795C14.1412 9.658 13.6222 9.38 13.3432 9.263C12.5488 8.92593 11.6951 8.75117 10.8322 8.749C8.92219 8.757 7.41919 9.964 7.29219 11.575C7.21119 12.738 7.78719 13.682 9.02219 14.402C9.28519 14.554 10.7022 15.118 11.2662 15.294C13.0402 15.846 13.9612 16.836 13.7442 17.991C13.5472 19.038 12.4452 19.715 10.9262 19.735C9.72319 19.689 8.63919 19.198 7.79919 18.545L7.65819 18.435C7.55419 18.355 7.44019 18.36 7.37119 18.465C7.32119 18.542 6.99519 19.012 6.91319 19.135C6.83619 19.243 6.87819 19.303 6.95819 19.369C7.30819 19.662 7.77519 19.982 8.09219 20.144C8.97037 20.5911 9.93625 20.8393 10.9212 20.871C11.6303 20.9046 12.3383 20.7838 12.9962 20.517C14.0912 20.052 14.7992 19.123 14.9412 17.963ZM11.0002 1.401C8.93219 1.401 7.24619 3.351 7.16719 5.791H14.8322C14.7512 3.35 13.0662 1.4 11.0002 1.4V1.401ZM18.8512 23.999L18.7712 24L2.98719 23.998C1.91319 23.958 1.12419 23.088 1.01619 22.007L1.00619 21.812L0.299193 6.286C0.294412 6.2236 0.302443 6.16087 0.322794 6.10169C0.343144 6.0425 0.375383 5.98811 0.41753 5.94184C0.459677 5.89557 0.51084 5.85841 0.567876 5.83264C0.624912 5.80688 0.686615 5.79304 0.749193 5.792H5.72419C5.84519 2.568 8.16019 0 11.0002 0C13.8382 0 16.1532 2.569 16.2752 5.79H21.2432C21.3055 5.79005 21.3671 5.80277 21.4243 5.82738C21.4815 5.852 21.533 5.88799 21.5759 5.93317C21.6187 5.97835 21.6519 6.03178 21.6735 6.0902C21.695 6.14863 21.7044 6.21082 21.7012 6.273L20.9282 21.861L20.9212 21.992C20.8272 23.086 19.9422 23.969 18.8512 23.998V23.999Z" fill="#005C4E"/>
</svg>
