<svg width="24" height="24" viewBox="0 0 24 24" fill="none" xmlns="http://www.w3.org/2000/svg">
<path d="M13.5219 6.47109C11.8069 5.02259 5.09685 5.34759 5.09685 5.34759L4.86035 21.6726C4.86035 21.6726 13.7879 21.7396 16.5369 21.6726C19.2859 21.6056 21.2074 19.4186 21.2369 17.7336C21.2664 16.0486 21.2369 5.64359 21.2369 5.64359C17.8079 5.22909 15.2659 5.55459 13.5219 6.47109Z" stroke="#005C4E" stroke-linecap="round" stroke-linejoin="round"/>
<path d="M9.76534 15.5737C11.6917 15.5737 13.2533 14.012 13.2533 12.0857C13.2533 10.1593 11.6917 8.59766 9.76534 8.59766C7.83897 8.59766 6.27734 10.1593 6.27734 12.0857C6.27734 14.012 7.83897 15.5737 9.76534 15.5737Z" stroke="#005C4E" stroke-linecap="round" stroke-linejoin="round"/>
<path d="M16.0215 14.6645C16.721 14.9819 17.5126 15.0315 18.2463 14.8038C18.9799 14.5762 19.6044 14.0872 20.0014 13.4296C20.3983 12.772 20.5401 11.9916 20.3998 11.2364C20.2594 10.4812 19.8468 9.80378 19.2401 9.33267C18.6334 8.86157 17.8749 8.62955 17.1085 8.68064C16.3421 8.73172 15.6211 9.06236 15.0823 9.60982C14.5435 10.1573 14.2244 10.8835 14.1855 11.6506C14.1467 12.4177 14.3908 13.1724 14.8715 13.7715M5.0965 5.34704L2.8495 6.97304L2.75 19.684L4.86 21.6725M16.8475 5.54704C16.6963 4.65145 16.2372 3.83677 15.5493 3.24368C14.8614 2.65059 13.988 2.31632 13.0799 2.29859C12.1719 2.28087 11.2861 2.5808 10.5756 3.1466C9.86512 3.7124 9.37451 4.50854 9.1885 5.39754" stroke="#005C4E" stroke-linecap="round" stroke-linejoin="round"/>
<path d="M17.1976 9.83105C17.3158 10.0864 17.339 10.3755 17.2628 10.6464C17.1866 10.9173 17.0162 11.152 16.7822 11.3083C16.5482 11.4645 16.2661 11.5321 15.9867 11.4987C15.7073 11.4652 15.4491 11.3331 15.2586 11.1261C15.0865 11.5417 15.0527 12.0016 15.162 12.4379C15.2714 12.8742 15.5181 13.2637 15.8658 13.5491C16.2135 13.8344 16.6438 14.0004 17.093 14.0225C17.5423 14.0446 17.9867 13.9217 18.3608 13.6719C18.7348 13.4221 19.0186 13.0586 19.1703 12.6352C19.322 12.2117 19.3335 11.7507 19.2031 11.3202C19.0727 10.8897 18.8074 10.5126 18.4463 10.2444C18.0851 9.97628 17.6474 9.83136 17.1976 9.83105ZM10.2616 10.0036C10.3545 10.2777 10.3463 10.5761 10.2383 10.8447C10.1304 11.1133 9.92985 11.3345 9.67301 11.468C9.41617 11.6016 9.12 11.6389 8.83809 11.573C8.55618 11.5072 8.30715 11.3426 8.13606 11.1091C7.91359 11.5143 7.82733 11.9803 7.89003 12.4384C7.95272 12.8964 8.16105 13.3221 8.48423 13.6526C8.80742 13.9832 9.22833 14.2011 9.68482 14.2741C10.1413 14.3471 10.6092 14.2713 11.0193 14.0581C11.4295 13.8448 11.7602 13.5053 11.9626 13.0896C12.165 12.674 12.2284 12.2043 12.1434 11.7499C12.0584 11.2955 11.8295 10.8804 11.4906 10.5661C11.1516 10.2517 10.7206 10.0547 10.2611 10.0041L10.2616 10.0036ZM12.1801 15.7091C12.1801 14.3006 13.1956 13.7281 14.5406 13.7281C15.7381 13.7281 16.4181 15.3541 16.4181 15.3541C15.2412 15.8548 13.9718 16.1015 12.6931 16.0781C13.4302 16.7622 14.3582 17.2057 15.3536 17.3496C15.3536 17.3496 14.9401 17.6596 13.5211 17.6596C12.3681 17.6601 12.1801 16.4336 12.1801 15.7091Z" stroke="#005C4E" stroke-linecap="round" stroke-linejoin="round"/>
<path d="M15.1583 15.7842C15.1887 16.2891 15.1453 16.7958 15.0293 17.2882" stroke="#005C4E" stroke-linecap="round" stroke-linejoin="round"/>
</svg>
